# xmcd
#
# Track frame offsets: 
#        150
#        36639
#        70089
#        106989
#        143512
#        175666
#        212941
#        249691
#        287380
#        323755
#
# Disc length: 4790 seconds
#
# Revision: 2
# Processed by: cddbd v1.5.1PL0 Copyright (c) Steve Scherf et al.
# Submitted via: ExactAudioCopy v0.95b2
#
DISCID=9012b40a
DTITLE=Various Artist - Tokyo 24 7
DYEAR=2004
DGENRE=Psytrance
TTITLE0=Dynamo - Wildstyle
TTITLE1=X-Noise - Mental Note
TTITLE2=Mindfield Vs Cosmosis - This Is Me
TTITLE3=Dickster - Little World
TTITLE4=Hypersonic - Crystal Wave
TTITLE5=Orion - Universal Ping Pong
TTITLE6=Cycle Sphere - Bow Wow
TTITLE7=Cosmosis - Dead Or Alive
TTITLE8=Spacecat - City Of Dust
TTITLE9=Black And White - Myladylay 47
EXTD=
EXTT0=
EXTT1=
EXTT2=
EXTT3=
EXTT4=
EXTT5=
EXTT6=
EXTT7=
EXTT8=
EXTT9=
PLAYORDER=
